<svg width="198" height="25" viewBox="0 0 198 25" fill="none" xmlns="http://www.w3.org/2000/svg">
<path fill-rule="evenodd" clip-rule="evenodd" d="M18.5175 0.863281L11.5215 24.9202H14.3785L21.3852 0.863281H18.5175Z" fill="#34B6C3"/>
<path fill-rule="evenodd" clip-rule="evenodd" d="M29.6259 15.7926L28.1417 12.1952L26.6369 15.7926H29.6259ZM28.131 4.04004L35.5618 21.3943H32.0184L30.9178 18.8099H25.345L24.2444 21.3943H20.7109L28.131 4.04004Z" fill="#03162C"/>
<path fill-rule="evenodd" clip-rule="evenodd" d="M48.8833 10.0852C48.8833 9.46539 48.668 8.92056 48.2374 8.44987C47.8133 8.01884 47.0073 7.77401 46.2186 7.77401H44.3805V12.4697H45.6427V12.4792H46.7334C47.9247 12.4792 48.8833 11.3809 48.8833 10.0852ZM41.1094 4.38867H46.4199C48.2316 4.38867 49.6976 5.10333 50.681 6.11798C51.671 7.15419 52.2551 8.09729 52.2551 9.97919V10.4232C52.2551 11.5688 51.9119 12.649 51.2255 13.6611C50.6538 14.4973 50.2017 14.8525 49.2777 15.2335L53.0628 21.3938H49.0649L44.3912 13.8723V21.3938H41.1193L41.1094 4.38867Z" fill="#03162C"/>
<path fill-rule="evenodd" clip-rule="evenodd" d="M65.4191 21.5105C63.1437 21.5027 61.2025 20.6665 59.5938 18.9993C57.9784 17.3113 57.1699 15.2786 57.1699 12.9018C57.1699 10.532 57.9784 8.49494 59.5938 6.79408C61.2157 5.09839 63.1578 4.25098 65.4191 4.25098L65.4092 4.29322C67.9221 4.29322 69.9195 5.4596 71.2642 6.81477L68.9319 9.25184C67.9494 8.23891 66.782 7.73287 65.429 7.73287C64.0562 7.73287 62.8921 8.23891 61.9359 9.25184C60.9666 10.2786 60.4823 11.4993 60.4823 12.9122C60.4823 14.3406 60.9666 15.5605 61.9359 16.5725C62.8979 17.5786 64.0628 18.0812 65.429 18.0812C66.8018 18.0812 67.9733 17.576 68.9427 16.563L71.2749 18.9993C69.9393 20.382 67.9576 21.5105 65.4191 21.5105Z" fill="#03162C"/>
<path fill-rule="evenodd" clip-rule="evenodd" d="M79.2593 4.38867V11.193H84.701V4.38867H87.9622V21.3947H84.701V14.5792H79.2593V21.3947H75.998V4.38867H79.2593Z" fill="#03162C"/>
<mask id="mask0_632_1654" style="mask-type:alpha" maskUnits="userSpaceOnUse" x="0" y="0" width="198" height="25">
<path fill-rule="evenodd" clip-rule="evenodd" d="M0 24.9201H197.889V0.862305H0V24.9201Z" fill="white"/>
</mask>
<g mask="url(#mask0_632_1654)">
<path fill-rule="evenodd" clip-rule="evenodd" d="M93.291 21.3947H96.5621V4.38867H93.291V21.3947Z" fill="#03162C"/>
<path fill-rule="evenodd" clip-rule="evenodd" d="M110.691 15.4132L118.656 3.9873V21.3942H115.385V14.3477L110.691 21.1201L105.986 14.3477V21.3942H102.715V3.9873L110.691 15.4132Z" fill="#03162C"/>
<path fill-rule="evenodd" clip-rule="evenodd" d="M127.076 4.38867L130.044 10.2861L133.013 4.38867H136.718L131.67 14.1051V21.3947H128.419V14.1051L123.381 4.38867H127.076Z" fill="#03162C"/>
<path fill-rule="evenodd" clip-rule="evenodd" d="M145.761 7.77483H144.701V17.9869H145.791C148.725 17.9869 150.637 15.9516 150.637 12.8809C150.637 9.83863 148.692 7.77483 145.761 7.77483ZM145.771 4.38867C148.327 4.38867 150.329 5.44988 151.717 6.88953C153.171 8.41453 153.898 10.4206 153.898 12.9076C153.898 15.3938 153.171 17.3921 151.717 18.9051C150.115 20.5645 148.134 21.3947 145.771 21.3947H141.439V4.39902H145.771V4.38867Z" fill="#03162C"/>
<path fill-rule="evenodd" clip-rule="evenodd" d="M169.261 4.34668V7.75358H162.718V11.1829H167.626V14.5898H162.718V18.0182H169.261V21.4156H159.447V4.34668H169.261Z" fill="#03162C"/>
<path fill-rule="evenodd" clip-rule="evenodd" d="M178.52 18.046C179.423 18.046 180.421 17.2624 180.421 16.3185C180.421 14.7659 178.426 14.5486 177.3 14.1417C175.316 13.4348 173.564 11.7331 173.564 9.41673C173.564 6.54949 175.79 4.23828 178.535 4.23828C181.037 4.23828 183.11 6.17707 183.446 8.69949L180.198 9.41673C180.198 8.48311 179.448 7.69949 178.554 7.69949C177.646 7.69949 176.895 8.48311 176.895 9.42707C176.895 10.959 178.752 11.3667 179.882 11.7176C181.936 12.3366 183.747 13.971 183.747 16.3391C183.747 19.2072 181.284 21.5228 178.545 21.5228C176.027 21.5228 173.751 19.5935 173.381 17.0607L176.629 16.3391C176.629 17.2883 177.616 18.0624 178.535 18.0624L178.52 18.046Z" fill="#03162C"/>
<path fill-rule="evenodd" clip-rule="evenodd" d="M5.24452 12.5095L8.47853 9.2543L8.4579 3.63965L0 12.6371L8.49832 21.6526L8.4876 16.2845L5.24452 12.5095Z" fill="#03162C"/>
<path fill-rule="evenodd" clip-rule="evenodd" d="M192.644 12.7836L189.41 16.0379L189.431 21.6526L197.889 12.6552L189.391 3.63965L189.401 9.00775L192.644 12.7836Z" fill="#03162C"/>
</g>
</svg>
